<svg width="21" height="21" viewBox="0 0 21 21" fill="none" xmlns="http://www.w3.org/2000/svg">
<path fill-rule="evenodd" clip-rule="evenodd" d="M5.51953 3.15601C5.51953 1.41301 6.93969 0 8.67969 0H11.8398C13.5798 0 14.9902 1.41301 14.9902 3.15601V3.37199C15.9702 3.46199 16.9502 3.579 17.9102 3.724C19.4402 3.953 20.5195 5.284 20.5195 6.793V9.98401C20.5195 11.259 19.7395 12.46 18.4795 12.88C15.8895 13.74 13.1298 14.205 10.2598 14.205C7.38977 14.205 4.62004 13.74 2.04004 12.88C0.770039 12.46 0 11.259 0 9.98401V6.793C0 5.284 1.06961 3.953 2.59961 3.724C3.56961 3.579 4.53953 3.46199 5.51953 3.37199V3.15601ZM13.4102 3.15601V3.252C12.3702 3.189 11.3198 3.15601 10.2598 3.15601C9.19977 3.15601 8.13961 3.189 7.09961 3.252V3.15601C7.09961 2.28501 7.80969 1.578 8.67969 1.578H11.8398C12.7098 1.578 13.4102 2.28501 13.4102 3.15601ZM10.2598 11.837C10.6898 11.837 11.0498 11.484 11.0498 11.048C11.0498 10.612 10.6898 10.259 10.2598 10.259C9.81977 10.259 9.46973 10.612 9.46973 11.048C9.46973 11.484 9.81977 11.837 10.2598 11.837Z" fill="#959595"/>
<path d="M0.789062 16.993V14.051C1.01906 14.18 1.26906 14.29 1.53906 14.378C4.27906 15.29 7.20879 15.783 10.2588 15.783C13.2988 15.783 16.2285 15.29 18.9785 14.378C19.2385 14.29 19.4885 14.18 19.7285 14.051V16.993C19.7285 18.521 18.6293 19.863 17.0693 20.07C14.8393 20.366 12.5688 20.518 10.2588 20.518C7.94879 20.518 5.66848 20.366 3.43848 20.07C1.88848 19.863 0.789062 18.521 0.789062 16.993Z" fill="#959595"/>
</svg>
