<svg width="508" height="325" viewBox="0 0 508 325" fill="none" xmlns="http://www.w3.org/2000/svg">
<path fill-rule="evenodd" clip-rule="evenodd" d="M184.651 222.292C184.651 216.034 179.569 210.954 173.312 210.954H11.339C5.08099 210.954 0 216.034 0 222.292V312.177C0 318.434 5.08099 323.514 11.339 323.514H173.312C179.569 323.514 184.651 318.434 184.651 312.177V222.292Z" fill="#8ABBB8"/>
<path fill-rule="evenodd" clip-rule="evenodd" d="M32.0336 301.587H12.9776V315.059H32.0336V301.587ZM101.011 276.412H12.9336V295.527H101.011V276.412ZM171.114 276.412H125.905V295.527H171.114V276.412Z" fill="white"/>
<path d="M184.651 242.342H0V268.787H184.651V242.342Z" fill="black"/>
<path fill-rule="evenodd" clip-rule="evenodd" d="M29.0141 288.257C28.9401 287.044 29.0771 285.704 29.3471 284.454C29.7651 282.522 30.52 280.817 31.223 280.062C31.832 279.409 32.498 279.274 33.052 279.462C33.846 279.729 34.315 280.439 34.401 281.449C34.526 282.897 33.784 285.092 33.51 285.719C32.874 287.169 32.067 288.254 31.138 289.109C31.271 289.737 31.497 290.274 31.921 290.594C32.371 290.934 33.016 290.962 33.893 290.707C34.358 290.572 35.3151 289.972 36.2431 289.232C36.0871 288.297 36.2521 287.299 36.6181 286.557C37.1831 285.414 38.1841 284.909 39.1131 285.222C39.7441 285.434 40.0871 285.799 40.2641 286.194C40.4961 286.712 40.4501 287.402 40.0171 288.147C39.7261 288.647 39.2411 289.209 38.6681 289.759C38.9541 289.989 39.3741 290.102 39.9411 290.092C40.6441 290.079 41.7091 289.539 42.8791 288.919C44.9611 287.819 47.282 286.399 48.641 286.032C49.82 285.712 50.575 286.099 50.887 286.767C51.131 287.287 51.3591 287.664 51.5951 287.914C51.7081 288.037 51.8061 288.122 51.9201 288.144C52.0721 288.172 52.219 288.099 52.38 288.024C52.588 287.924 52.799 287.792 53.02 287.644C54.554 286.627 56.4051 285.204 58.9331 286.064C59.9771 286.419 60.262 287.384 60.078 288.577C60.026 288.917 59.943 289.274 59.891 289.604C59.883 289.657 59.8771 289.719 59.8731 289.779C59.9951 289.772 60.1301 289.749 60.2741 289.722C60.6621 289.652 61.0891 289.529 61.5221 289.394C62.5471 289.079 63.596 288.727 64.314 288.682C71.923 288.187 79.584 288.314 87.185 287.664C87.735 287.617 88.2201 288.027 88.2671 288.577C88.3141 289.127 87.905 289.609 87.356 289.657C79.741 290.309 72.067 290.182 64.443 290.677C63.702 290.724 62.5601 291.192 61.5221 291.479C60.5831 291.742 59.7041 291.852 59.1031 291.697C58.0401 291.419 57.7221 290.482 57.9231 289.244C57.9701 288.957 58.038 288.652 58.088 288.357C58.11 288.224 58.121 288.032 58.125 287.907C57.207 287.649 56.4371 287.894 55.7611 288.254C55.1631 288.574 54.6271 288.979 54.1261 289.312C53.2171 289.914 52.358 290.259 51.551 290.109C50.821 289.972 50.0061 289.427 49.2431 287.954C49.1111 287.984 48.938 288.029 48.797 288.082C48.324 288.259 47.767 288.534 47.166 288.852C45.181 289.902 42.756 291.387 41.124 291.884C40.696 292.017 40.309 292.084 39.979 292.092C38.638 292.117 37.7281 291.682 37.1291 291.059C36.0541 291.864 34.983 292.474 34.45 292.627C32.781 293.112 31.574 292.837 30.718 292.192C30.147 291.762 29.7181 291.139 29.4331 290.379C29.1491 290.552 28.858 290.714 28.562 290.867C26.724 291.812 24.645 292.407 22.617 293.427C22.124 293.674 21.522 293.474 21.274 292.982C21.027 292.487 21.226 291.887 21.719 291.639C23.357 290.817 25.0261 290.267 26.5781 289.592C27.4391 289.217 28.2631 288.802 29.0141 288.257ZM32.417 281.792C32.139 282.239 31.878 282.857 31.653 283.559C31.52 283.974 31.401 284.419 31.302 284.877C31.221 285.252 31.153 285.634 31.102 286.019C31.31 285.684 31.502 285.317 31.679 284.914C31.865 284.489 32.3411 283.152 32.4101 282.057C32.4151 281.967 32.418 281.877 32.417 281.792Z" fill="black"/>
<path d="M507.704 173.774H231.797V323.342H507.704V173.774Z" fill="#EDE9FE"/>
<path fill-rule="evenodd" clip-rule="evenodd" d="M421.163 306.566C422.182 302.838 423.812 299.102 426.073 295.974C426.525 295.35 427.286 294.139 428.162 293.34C428.978 292.596 429.905 292.212 430.802 292.41C431.837 292.637 432.369 293.395 432.481 294.468C432.644 296.062 431.638 298.554 431.248 299.257C429.336 302.714 426.219 305.527 422.908 307.799C422.764 308.41 422.668 309.047 422.712 309.636C422.769 310.389 423.101 311.044 424.024 311.302C425.911 311.825 428.007 311.282 430.01 310.276C430.778 309.89 431.531 309.436 432.254 308.936C432.271 308.624 432.302 308.336 432.332 308.104C432.747 304.796 434.622 301.69 436.874 299.296C437.227 298.921 438.395 297.587 439.351 297.19C440.169 296.85 440.905 296.967 441.442 297.653C441.939 298.288 442.057 299.187 441.822 300.193C441.426 301.884 440.017 303.966 439.43 304.776C438.255 306.393 436.416 308.312 434.277 309.935C434.294 310.04 434.32 310.141 434.358 310.23C434.379 310.282 434.392 310.339 434.445 310.359C435.353 310.701 436.333 310.322 437.293 309.754C439.093 308.691 440.78 306.867 441.837 305.891C442.295 305.468 443.05 304.678 443.845 304.2C444.613 303.737 445.425 303.565 446.147 303.82C447.033 304.134 447.363 304.746 447.365 305.542C447.365 306.005 447.199 306.583 446.955 307.194C446.736 307.738 446.455 308.32 446.293 308.864C446.241 309.038 446.199 309.204 446.193 309.361C446.186 309.471 446.228 309.558 446.354 309.608C446.918 309.831 447.406 309.682 447.858 309.383C448.511 308.949 449.098 308.248 449.683 307.541C450.534 306.513 451.381 305.47 452.288 304.881C453.087 304.364 453.934 304.152 454.859 304.381C456.184 304.711 456.431 305.811 456.082 307.266C455.972 307.731 455.809 308.24 455.732 308.715C455.689 308.999 455.588 309.292 455.872 309.418C456.311 309.612 456.725 309.521 457.131 309.34C457.518 309.167 457.897 308.912 458.275 308.646C458.971 308.157 459.663 307.624 460.368 307.282C460.959 306.993 461.564 306.828 462.182 306.847C462.707 306.865 463.052 307.031 463.292 307.229C463.587 307.474 463.759 307.797 463.827 308.187C463.864 308.392 463.866 308.626 463.849 308.87C463.84 308.999 463.831 309.2 463.825 309.344C465.868 309.61 468.15 308.971 470.191 308.835C473.668 308.602 477.179 308.807 480.641 308.495C481.191 308.445 481.677 308.851 481.725 309.401C481.776 309.951 481.37 310.437 480.82 310.488C477.343 310.802 473.816 310.597 470.324 310.83C468.105 310.979 465.61 311.636 463.401 311.304C462.895 311.23 462.561 311.033 462.328 310.804C462.064 310.544 461.911 310.224 461.848 309.857C461.804 309.606 461.808 309.324 461.828 309.043C461.832 308.993 461.837 308.929 461.841 308.866C461.448 308.932 461.071 309.152 460.689 309.396C460.032 309.818 459.384 310.344 458.722 310.749C457.555 311.468 456.348 311.817 455.06 311.245C454.13 310.832 453.768 310.134 453.709 309.294C453.668 308.722 453.81 308.054 453.98 307.408C454.058 307.109 454.141 306.817 454.194 306.546C454.207 306.474 454.218 306.376 454.222 306.295C453.799 306.254 453.428 306.489 453.059 306.795C452.426 307.319 451.835 308.08 451.223 308.816C450.505 309.684 449.763 310.518 448.962 311.051C447.961 311.714 446.867 311.961 445.623 311.47C444.502 311.029 444.15 310.237 444.194 309.279C444.222 308.646 444.491 307.895 444.798 307.162C444.947 306.81 445.102 306.461 445.217 306.136C445.263 306.007 445.305 305.832 445.331 305.701C445.265 305.717 445.198 305.75 445.13 305.78C444.947 305.859 444.766 305.976 444.591 306.105C444.03 306.516 443.524 307.055 443.192 307.362C442.062 308.406 440.237 310.337 438.31 311.476C436.782 312.38 435.183 312.777 433.738 312.229C433.194 312.024 432.81 311.631 432.568 311.123C432.024 311.465 431.47 311.782 430.909 312.063C428.43 313.307 425.822 313.877 423.489 313.229C421.348 312.633 420.682 311.007 420.715 309.215C420.492 309.351 420.272 309.481 420.052 309.612C418.616 310.459 417.053 311.52 415.445 312.022C415.458 312.017 415.499 312.002 415.499 312.002C415.499 312.002 415.244 312.09 415.126 312.1C414.947 312.12 414.794 312.094 414.678 312.055C414.451 311.978 414.286 311.843 414.168 311.677C413.849 311.227 413.956 310.603 414.406 310.285C414.548 310.184 414.707 310.125 414.866 310.106C416.326 309.647 417.73 308.659 419.035 307.89C419.744 307.474 420.455 307.033 421.163 306.566ZM415.754 310.461L415.768 310.479L415.765 310.474L415.754 310.461ZM415.717 310.42L415.733 310.435L415.728 310.431L415.717 310.42ZM415.68 310.383L415.695 310.396L415.689 310.389L415.68 310.383ZM415.643 310.348L415.65 310.354L415.645 310.35L415.643 310.348ZM439.942 299.163C439.753 299.287 439.488 299.468 439.325 299.621C438.88 300.036 438.5 300.488 438.332 300.667C436.64 302.465 435.165 304.704 434.547 307.133C435.879 305.952 437.014 304.7 437.81 303.602C438.244 303.002 439.218 301.609 439.7 300.306C439.831 299.946 439.929 299.597 439.94 299.283C439.942 299.241 439.945 299.202 439.942 299.163ZM423.864 304.621C426.119 302.834 428.142 300.743 429.497 298.29C429.759 297.821 430.396 296.332 430.49 295.134C430.506 294.944 430.506 294.765 430.482 294.604C430.466 294.499 430.475 294.386 430.372 294.364C430.241 294.333 430.117 294.392 429.993 294.46C429.827 294.549 429.668 294.676 429.51 294.818C428.742 295.52 428.092 296.599 427.695 297.146C426.071 299.39 424.801 301.97 423.864 304.621Z" fill="black"/>
<path fill-rule="evenodd" clip-rule="evenodd" d="M385.818 275.909V273.528C385.818 272.617 386.49 271.878 387.318 271.878C388.145 271.878 388.818 272.617 388.818 273.528V277.372C388.818 278.282 388.145 279.022 387.318 279.022H387.315C387.108 279.143 386.871 279.209 386.618 279.209H256.273C256.01 279.209 255.763 279.134 255.548 279.005C254.723 279 254.055 278.263 254.055 277.355V273.528C254.055 272.617 254.728 271.878 255.555 271.878C256.383 271.878 257.055 272.617 257.055 273.528V275.909H385.818ZM437.583 240.171V237.072C437.583 236.162 438.255 235.422 439.083 235.422C439.91 235.422 440.583 236.162 440.583 237.072V240.916C440.583 241.274 440.48 241.604 440.305 241.873C440.278 242.759 439.618 243.471 438.805 243.471H255.663C255.645 243.471 255.628 243.471 255.61 243.471C255.59 243.471 255.573 243.471 255.555 243.471C254.728 243.471 254.055 242.731 254.055 241.821V237.993C254.055 237.083 254.728 236.343 255.555 236.343C256.383 236.343 257.055 237.083 257.055 237.993V240.171H437.583ZM254.688 208.808L254.795 204.967C254.823 204.056 255.516 203.342 256.343 203.369C257.171 203.399 257.82 204.161 257.795 205.068L257.735 207.213H437.938V205.019C437.938 204.109 438.61 203.369 439.438 203.369C440.265 203.369 440.938 204.109 440.938 205.019V208.863C440.938 209.773 440.265 210.513 439.438 210.513C439.42 210.513 439.4 210.513 439.383 210.513C439.365 210.513 439.348 210.513 439.33 210.513H256.193C256.185 210.513 256.175 210.513 256.168 210.513H256.16C256.01 210.51 255.868 210.483 255.733 210.436C255.498 210.353 255.288 210.21 255.121 210.023L255.113 210.015L255.105 210.007L255.1 210.001C254.935 209.809 254.81 209.575 254.743 209.314C254.705 209.165 254.685 209.006 254.688 208.844V208.833C254.688 208.824 254.688 208.816 254.688 208.808Z" fill="#B4A1FF"/>
<path fill-rule="evenodd" clip-rule="evenodd" d="M480.432 280.808V271.876C480.432 271.048 481.104 270.376 481.932 270.376C482.759 270.376 483.432 271.048 483.432 271.876V282.308C483.432 283.138 482.762 283.808 481.932 283.808H407.582C406.752 283.808 406.082 283.138 406.082 282.308V271.876C406.082 271.048 406.754 270.376 407.582 270.376C408.409 270.376 409.082 271.048 409.082 271.876V280.808H480.432Z" fill="#B4A1FF"/>
<path fill-rule="evenodd" clip-rule="evenodd" d="M409.082 261.128V271.876C409.082 272.703 408.409 273.376 407.582 273.376C406.754 273.376 406.082 272.703 406.082 271.876V259.628C406.082 258.801 406.752 258.128 407.582 258.128H481.932C482.762 258.128 483.432 258.801 483.432 259.628V271.876C483.432 272.703 482.759 273.376 481.932 273.376C481.104 273.376 480.432 272.703 480.432 271.876V261.128H409.082Z" fill="#B4A1FF"/>
<path fill-rule="evenodd" clip-rule="evenodd" d="M414.473 277.615H422.11C422.938 277.615 423.61 276.943 423.61 276.115C423.61 275.288 422.938 274.615 422.11 274.615H414.473C413.645 274.615 412.973 275.288 412.973 276.115C412.973 276.943 413.645 277.615 414.473 277.615ZM440.94 277.615H448.575C449.402 277.615 450.075 276.943 450.075 276.115C450.075 275.288 449.402 274.615 448.575 274.615H440.94C440.112 274.615 439.44 275.288 439.44 276.115C439.44 276.943 440.112 277.615 440.94 277.615ZM427.705 277.615H435.343C436.17 277.615 436.843 276.943 436.843 276.115C436.843 275.288 436.17 274.615 435.343 274.615H427.705C426.877 274.615 426.205 275.288 426.205 276.115C426.205 276.943 426.877 277.615 427.705 277.615ZM454.173 277.615H461.81C462.637 277.615 463.31 276.943 463.31 276.115C463.31 275.288 462.637 274.615 461.81 274.615H454.173C453.345 274.615 452.673 275.288 452.673 276.115C452.673 276.943 453.345 277.615 454.173 277.615ZM467.408 277.615H475.043C475.87 277.615 476.543 276.943 476.543 276.115C476.543 275.288 475.87 274.615 475.043 274.615H467.408C466.58 274.615 465.908 275.288 465.908 276.115C465.908 276.943 466.58 277.615 467.408 277.615Z" fill="#B4A1FF"/>
<path d="M473.053 226.271C484.664 226.271 494.076 216.859 494.076 205.249C494.076 193.639 484.664 184.227 473.053 184.227C461.443 184.227 452.031 193.639 452.031 205.249C452.031 216.859 461.443 226.271 473.053 226.271Z" fill="#B4A1FF"/>
<path fill-rule="evenodd" clip-rule="evenodd" d="M472.354 193.991L472.496 184.236C472.681 184.231 472.866 184.228 473.051 184.228C473.538 184.228 474.018 184.246 474.496 184.278L474.354 194.016C476.144 193.993 478.008 193.846 479.926 193.533C478.666 189.893 477.123 186.758 475.806 184.408C476.668 184.521 477.519 184.686 478.346 184.901C479.546 187.183 480.834 189.991 481.911 193.153C484.066 192.676 486.279 191.983 488.519 191.018C488.989 191.528 489.434 192.063 489.851 192.618C487.369 193.731 484.914 194.526 482.521 195.063C482.669 195.558 482.808 196.058 482.941 196.568C483.668 199.321 484.184 202.268 484.334 205.321L494.071 205.611C494.061 206.286 494.016 206.951 493.943 207.608L484.376 207.323C484.356 210.721 483.854 214.221 482.659 217.711C484.491 218.228 486.354 218.911 488.234 219.788C487.734 220.308 487.209 220.803 486.659 221.271C485.071 220.571 483.498 220.018 481.946 219.586C481.118 221.576 480.051 223.556 478.709 225.501C477.756 225.768 476.776 225.968 475.774 226.098C477.581 223.808 478.954 221.463 479.966 219.098C477.916 218.658 475.916 218.423 473.991 218.346L473.873 226.256C473.601 226.266 473.326 226.273 473.051 226.273C472.656 226.273 472.263 226.261 471.873 226.241L471.991 218.321C469.591 218.356 467.331 218.621 465.263 219.016C466.363 221.281 467.793 223.608 469.613 225.991C468.586 225.823 467.586 225.578 466.616 225.266C465.253 223.288 464.143 221.348 463.253 219.453C461.633 219.846 460.163 220.306 458.878 220.771C458.341 220.278 457.829 219.761 457.346 219.216C458.804 218.658 460.521 218.088 462.451 217.606C461.013 214.028 460.349 210.623 460.224 207.438C460.214 207.158 460.206 206.881 460.204 206.606L452.058 206.363C452.041 205.996 452.031 205.623 452.031 205.251C452.031 204.953 452.036 204.658 452.048 204.363L460.256 204.606C460.483 200.871 461.433 197.481 462.698 194.516C460.088 193.821 457.956 193.006 456.456 192.353C456.884 191.801 457.341 191.273 457.821 190.766C459.266 191.368 461.214 192.078 463.546 192.681C465.239 189.283 467.278 186.551 468.933 184.631C469.928 184.433 470.948 184.306 471.988 184.253C470.403 185.858 467.699 188.936 465.534 193.146C467.594 193.573 469.889 193.896 472.354 193.991ZM482.368 207.263L474.159 207.021L474.021 216.351C476.169 216.433 478.403 216.701 480.696 217.213C481.861 213.871 482.351 210.516 482.368 207.263ZM462.206 206.666C462.209 206.896 462.214 207.128 462.224 207.361C462.341 210.431 463.006 213.708 464.428 217.156C466.741 216.686 469.296 216.366 472.021 216.328L472.161 206.961L462.206 206.666ZM480.548 195.453C478.403 195.821 476.318 195.988 474.323 196.011L474.188 205.021L482.321 205.261C482.173 202.406 481.686 199.651 481.008 197.076C480.863 196.528 480.711 195.986 480.548 195.453ZM464.654 194.991C463.416 197.818 462.481 201.073 462.256 204.666L472.191 204.961L472.323 195.981C469.531 195.876 466.949 195.493 464.654 194.991Z" fill="#EDE9FE"/>
<path fill-rule="evenodd" clip-rule="evenodd" d="M292.109 279.921C292.734 292.376 294.729 302.974 298.089 312.754C300.287 319.216 306.354 323.562 313.179 323.562C313.179 323.569 313.179 323.569 313.179 323.569C318.929 323.569 324.114 320.109 326.319 314.799C330.137 305.626 333.354 294.361 335.657 279.921H292.109Z" fill="#505050"/>
<path fill-rule="evenodd" clip-rule="evenodd" d="M292.514 285.781C292.471 285.299 292.431 284.814 292.391 284.324L303.716 284.534C303.716 284.534 306.314 293.196 308.694 300.891C311.869 311.149 314.899 317.964 321.464 320.909C320.839 321.356 320.176 321.754 319.486 322.094C317.379 322.864 314.771 323.569 313.179 323.569C313.179 323.569 313.179 323.569 313.179 323.561C313.136 323.561 313.091 323.561 313.049 323.561C312.799 323.559 312.551 323.551 312.304 323.539L312.224 323.534C312.119 323.526 312.011 323.521 311.906 323.511L311.829 323.506L311.751 323.499L311.671 323.491C311.646 323.489 311.621 323.486 311.594 323.484L311.551 323.479C311.459 323.471 311.369 323.459 311.276 323.449C311.226 323.444 311.176 323.436 311.126 323.431L311.046 323.421C310.919 323.401 310.789 323.384 310.661 323.364L310.584 323.351C310.559 323.346 310.531 323.341 310.506 323.336L310.429 323.324C310.404 323.319 310.379 323.316 310.351 323.311L310.279 323.296C310.194 323.281 310.109 323.266 310.024 323.249C309.606 323.164 309.194 323.064 308.789 322.946C308.654 322.909 308.521 322.869 308.386 322.826C308.211 322.771 308.036 322.711 307.864 322.651C307.799 322.629 307.734 322.604 307.669 322.581L307.524 322.526C306.519 322.144 305.559 321.664 304.656 321.094L304.529 321.011C304.479 320.979 304.429 320.946 304.381 320.914L304.274 320.841L304.146 320.756L304.106 320.729C303.681 320.434 303.271 320.121 302.879 319.786C302.741 319.671 302.606 319.554 302.474 319.434L302.361 319.329L302.249 319.226C302.211 319.191 302.176 319.156 302.139 319.121L302.046 319.031C301.536 318.534 301.059 318.001 300.619 317.439C300.391 317.146 300.171 316.846 299.964 316.539C299.899 316.439 299.834 316.341 299.769 316.241C299.689 316.116 299.611 315.989 299.534 315.861L299.509 315.821L299.484 315.779C299.306 315.481 299.139 315.176 298.979 314.866L298.944 314.796L298.919 314.744C298.706 314.316 298.511 313.879 298.334 313.429L298.306 313.354C298.266 313.249 298.226 313.144 298.189 313.039C298.154 312.944 298.121 312.849 298.089 312.754L298.014 312.536L297.991 312.466L297.941 312.321L297.911 312.236L297.866 312.101L297.836 312.014L297.794 311.884L297.764 311.794L297.719 311.661L297.691 311.574L297.646 311.434L297.619 311.356L297.564 311.181L297.549 311.139L297.476 310.919L297.459 310.859L297.406 310.701L297.381 310.619L297.336 310.481L297.309 310.391L297.266 310.259L297.239 310.169L297.196 310.036L297.169 309.946L297.126 309.809L297.101 309.726L297.051 309.569L297.031 309.506L296.966 309.284L296.951 309.241L296.899 309.064L296.874 308.984L296.831 308.841L296.806 308.754L296.764 308.619L296.739 308.526L296.699 308.394L296.671 308.304L296.631 308.166L296.606 308.079L296.564 307.931L296.541 307.856L296.479 307.639L296.476 307.634L296.414 307.409L296.394 307.336L296.349 307.186L296.326 307.099L296.286 306.961L296.261 306.869L296.224 306.734L296.199 306.641L296.161 306.506L296.136 306.416L296.096 306.271L296.076 306.189L296.026 306.011L296.014 305.964L295.954 305.739L295.936 305.674L295.894 305.511L295.871 305.426L295.834 305.284L295.809 305.191L295.774 305.056L295.751 304.961L295.716 304.826L295.691 304.734L295.656 304.591L295.634 304.504L295.591 304.344L295.576 304.276L295.519 304.046L295.506 304.001L295.461 303.819L295.441 303.736L295.406 303.589L295.384 303.496L295.349 303.359L295.326 303.261L295.294 303.126L295.271 303.029L295.236 302.891L295.216 302.799L295.181 302.646L295.161 302.566L295.111 302.354L295.106 302.334L295.054 302.104L295.036 302.024L295.001 301.874L294.981 301.779L294.949 301.639L294.926 301.541L294.896 301.404L294.874 301.306L294.844 301.169L294.824 301.071L294.791 300.926L294.771 300.836L294.734 300.664L294.721 300.601L294.671 300.371L294.656 300.296L294.621 300.136L294.601 300.041L294.574 299.899L294.551 299.799L294.524 299.661L294.504 299.559L294.476 299.424L294.454 299.321L294.426 299.184L294.406 299.084L294.376 298.931L294.359 298.846L294.314 298.614L294.301 298.546L294.269 298.376L294.249 298.279L294.221 298.136L294.201 298.031L294.176 297.899L294.156 297.789L294.131 297.656L294.111 297.549L294.086 297.414L294.066 297.309L294.041 297.169L294.024 297.066L293.991 296.891L293.979 296.829L293.971 296.781L293.939 296.594L293.919 296.489L293.896 296.351L293.876 296.239L293.854 296.109L293.834 295.994L293.811 295.866L293.791 295.751L293.771 295.624L293.751 295.506L293.729 295.379L293.711 295.264L293.689 295.124L293.671 295.019L293.634 294.786L293.614 294.671L293.594 294.541L293.574 294.419L293.556 294.296L293.536 294.171L293.516 294.051L293.499 293.926L293.479 293.806L293.459 293.679L293.441 293.561L293.421 293.431L293.406 293.316L293.386 293.184L293.371 293.079L293.351 292.949L293.331 292.814L293.316 292.706L293.296 292.569L293.281 292.459L293.261 292.321L293.246 292.211L293.226 292.074L293.214 291.964L293.194 291.824L293.179 291.719L293.159 291.574L293.146 291.476L293.126 291.324L293.119 291.259L293.094 291.084L293.069 290.879L293.064 290.846L293.044 290.681L293.031 290.596L293.014 290.439L293.001 290.346L292.981 290.189L292.971 290.096L292.951 289.939L292.941 289.849L292.921 289.686L292.911 289.606L292.891 289.431L292.886 289.389L292.861 289.189C292.854 289.109 292.844 289.029 292.836 288.949L292.811 288.744L292.809 288.704L292.786 288.519L292.781 288.451L292.761 288.271L292.754 288.201L292.734 288.021L292.726 287.951L292.706 287.766L292.701 287.709L292.681 287.511L292.679 287.491C292.646 287.179 292.616 286.869 292.586 286.554L292.584 286.531L292.564 286.319L292.559 286.276L292.541 286.069L292.536 286.026L292.519 285.814L292.514 285.781Z" fill="#BCBCBC"/>
<path fill-rule="evenodd" clip-rule="evenodd" d="M156.484 280.222C157.109 292.677 159.104 303.275 162.464 313.055C164.662 319.517 170.729 323.862 177.554 323.862C177.554 323.87 177.554 323.87 177.554 323.87C183.304 323.87 188.489 320.41 190.694 315.1C194.512 305.927 197.729 294.662 200.032 280.222H156.484Z" fill="#E7E7E7"/>
<path fill-rule="evenodd" clip-rule="evenodd" d="M156.574 281.857C156.542 281.315 156.512 280.772 156.484 280.222H200.032C199.822 281.532 199.607 282.812 199.384 284.07L192.267 283.952C190.949 288.175 182.974 313.677 179.057 317.777C175.849 321.132 174.182 322.247 172.527 323.05C167.932 321.522 164.179 317.945 162.517 313.207L162.514 313.202L162.494 313.14L162.464 313.055C161.967 311.607 161.499 310.14 161.062 308.652C161.002 308.452 160.944 308.252 160.887 308.05C160.727 307.5 160.574 306.945 160.422 306.385C160.392 306.267 160.359 306.15 160.327 306.03C160.152 305.367 159.979 304.697 159.814 304.022C159.674 303.452 159.537 302.877 159.407 302.3C159.222 301.497 159.047 300.687 158.879 299.867C158.762 299.295 158.649 298.715 158.539 298.132C158.494 297.885 158.447 297.637 158.402 297.387L158.357 297.132C158.292 296.77 158.227 296.405 158.167 296.037C158.054 295.375 157.947 294.705 157.844 294.03L157.804 293.767C157.734 293.312 157.669 292.852 157.604 292.39L157.577 292.185L157.569 292.125C157.344 290.462 157.147 288.77 156.979 287.04L156.954 286.762L156.949 286.717C156.902 286.205 156.854 285.69 156.812 285.17C156.722 284.08 156.642 282.977 156.574 281.857Z" fill="#505050"/>
<path fill-rule="evenodd" clip-rule="evenodd" d="M364.554 163.578C366.409 163.058 367.934 162.586 368.314 162.349C372.774 159.573 376.539 154.99 378.536 149.789C380.466 144.77 380.949 139.199 378.606 134.272C375.796 138.314 371.339 141.06 367.276 141.381C362.751 141.738 358.401 139.525 356.216 133.123C353.641 125.576 358.656 119.568 366.149 118.062C369.016 117.486 372.299 117.658 375.556 118.823C375.356 116.878 374.874 114.976 374.166 113.145C372.301 108.319 368.986 103.964 365.049 100.597C364.041 99.785 363.884 98.309 364.694 97.302C365.504 96.295 366.981 96.136 367.989 96.948C372.796 100.591 376.906 105.458 379.406 110.94C381.069 114.587 381.984 118.508 381.934 122.56C384.014 124.339 385.939 126.665 387.569 129.612C391.651 136.994 391.716 145.612 389.196 153.53C386.719 161.322 381.521 168.306 375.229 172.756C374.441 173.316 371.389 174.706 367.849 176.061C368.279 178.163 368.676 180.353 369.044 182.643C375.894 225.308 375.626 265.166 363.029 305.361C359.456 316.691 348.949 324.398 337.071 324.398C337.069 324.401 337.069 324.401 337.069 324.401C326.521 324.401 317.144 317.676 313.764 307.681C309.699 295.668 304.934 281.581 304.934 281.581H189.461C189.461 281.581 183.514 298.403 179.076 310.961C176.229 319.016 168.614 324.401 160.071 324.401H160.069C149.436 324.401 140.205 317.071 137.797 306.713C135.056 294.923 131.953 281.581 131.953 281.581H97.2152C93.1832 281.581 89.4011 279.223 87.9741 275.453C83.5291 263.711 74.6772 233.498 88.8272 198.236C89.8662 195.648 92.5551 194.101 95.3461 194.101C104.601 194.093 125.044 194.093 125.044 194.093C125.044 194.093 128.135 147.012 170.771 122.185L159.174 100.05C159.174 100.05 178.566 92.41 195.734 114.492C236.649 104.864 272.729 103.829 318.676 117.461C329.431 120.634 339.159 126.586 346.881 134.716C352.256 140.364 356.491 146.022 359.851 152.44C361.659 155.894 363.211 159.568 364.554 163.578ZM374.056 128.59C372.691 127.622 371.236 127.059 369.801 126.88C366.576 126.476 363.146 127.704 363.984 130.726C364.704 133.334 366.431 134.205 368.284 133.631C370.566 132.923 372.826 131.037 374.056 128.59Z" fill="#E7E7E7"/>
<path fill-rule="evenodd" clip-rule="evenodd" d="M188.643 283.888L192.365 272.433C192.545 271.875 193.098 271.523 193.678 271.595C194.26 271.668 194.71 272.143 194.75 272.728L195.36 281.583H189.458L188.643 283.888ZM297.875 281.583L299.805 272.003C299.893 271.578 300.253 271.263 300.688 271.235C301.12 271.205 301.52 271.473 301.66 271.885C303.078 276.07 305.305 282.648 305.305 282.648L305.295 282.65L304.933 281.583H297.875ZM342.9 201.903C342.9 169.58 318.038 142.696 285.813 140.175C262.293 138.314 238.91 138.33 215.665 140.17C183.438 142.685 158.57 169.57 158.57 201.895C158.568 201.895 158.568 201.895 158.568 201.895C158.568 235.395 185.203 262.828 218.69 263.813C240.133 264.45 261.495 264.45 282.778 263.82C316.265 262.835 342.9 235.403 342.9 201.903ZM110.598 194.198C112.587 198.628 114.415 204.643 115.667 212.808C115.876 214.17 114.938 215.448 113.575 215.655C112.211 215.865 110.934 214.928 110.724 213.565C109.32 204.408 107.223 198.283 105.066 194.2L109.221 194.198H110.598ZM120.345 194.198C121.918 197.6 123.334 201.938 124.371 207.468C124.625 208.825 123.731 210.133 122.375 210.385C121.019 210.64 119.711 209.745 119.457 208.39C118.244 201.925 116.518 197.383 114.736 194.198H120.345ZM367.845 176.06C368.278 178.163 364.193 162.502 364.553 163.578C366.405 163.058 367.933 162.586 368.313 162.349C368.585 162.179 368.858 162.002 369.125 161.818C370.15 165.135 371.34 169.385 372.39 174.19C371.115 174.758 369.535 175.413 367.845 176.06ZM378.605 134.272C378.145 135.287 382.255 128.437 381.933 122.56C383.525 123.923 385.028 125.606 386.375 127.644C385.715 130.84 384.273 134.966 381.158 138.994C380.873 139.362 380.505 139.63 380.1 139.789C379.925 137.904 379.448 136.046 378.605 134.272ZM375.553 118.822C375.983 124.102 373.713 129.269 374.055 128.589C372.69 127.622 371.235 127.059 369.798 126.879C369.675 126.864 369.553 126.851 369.43 126.84C371.405 123.581 371.088 120.047 370.548 117.779C372.183 117.884 373.873 118.221 375.553 118.822ZM170.74 122.202L172.588 125.892C173.205 127.126 172.705 128.629 171.473 129.247C170.238 129.865 168.735 129.365 168.118 128.131L166.473 124.846C167.85 123.94 169.273 123.058 170.74 122.202ZM197.468 117.377C197.468 117.377 195.038 113.597 195.733 114.492C197.41 114.097 199.08 113.717 200.745 113.35L201.553 114.493C202.348 115.62 202.078 117.181 200.953 117.977C199.825 118.773 198.263 118.504 197.468 117.377Z" fill="#505050"/>
<path d="M93.9783 281.686C101.359 281.686 107.343 262.101 107.343 237.941C107.343 213.782 101.359 194.197 93.9783 194.197C86.5973 194.197 80.6133 213.782 80.6133 237.941C80.6133 262.101 86.5973 281.686 93.9783 281.686Z" fill="#505050"/>
<path fill-rule="evenodd" clip-rule="evenodd" d="M86.832 218.431V257.454C86.832 258.831 87.952 259.954 89.332 259.954C90.712 259.954 91.832 258.831 91.832 257.454V218.431C91.832 217.051 90.712 215.931 89.332 215.931C87.952 215.931 86.832 217.051 86.832 218.431Z" fill="black"/>
<path fill-rule="evenodd" clip-rule="evenodd" d="M96.125 218.431V257.454C96.125 258.831 97.245 259.954 98.625 259.954C100.005 259.954 101.125 258.831 101.125 257.454V218.431C101.125 217.051 100.005 215.931 98.625 215.931C97.245 215.931 96.125 217.051 96.125 218.431Z" fill="black"/>
<path fill-rule="evenodd" clip-rule="evenodd" d="M134.533 182.869C134.479 184.285 134.318 187.318 135.061 190.051C135.992 193.477 138.175 196.439 142.809 196.701C144.718 196.808 147.338 196.561 149.473 194.494C151.3 192.725 152.94 189.385 152.811 182.913L147.811 183.014C147.898 187.36 147.222 189.714 145.996 190.902C145.078 191.789 143.91 191.755 143.09 191.709C141.108 191.596 140.284 190.206 139.886 188.739C139.299 186.58 139.487 184.178 139.53 183.06L134.533 182.869Z" fill="black"/>
<path d="M305.412 121.228H206.238L208.744 132.247H307.918L305.412 121.228Z" fill="black"/>
<path fill-rule="evenodd" clip-rule="evenodd" d="M214.711 140.253C215.033 140.222 215.351 140.195 215.671 140.17C238.916 138.33 262.298 138.314 285.818 140.176C290.556 140.546 295.133 141.443 299.496 142.806V195.031H214.711V140.253Z" fill="#8ABBB8"/>
<path fill-rule="evenodd" clip-rule="evenodd" d="M229.934 139.271C247.202 138.462 264.542 138.659 281.962 139.887C277.572 149.821 267.629 156.76 256.079 156.76C244.292 156.76 234.179 149.533 229.934 139.271Z" fill="#CAF2EF"/>
<path fill-rule="evenodd" clip-rule="evenodd" d="M241.797 195.031V170.676C241.797 167.771 244.152 165.415 247.054 165.415C249.959 165.415 252.314 167.771 252.314 170.676V195.031H241.797ZM259.362 195.031V176.886C259.362 173.983 261.719 171.626 264.622 171.626C267.524 171.626 269.882 173.983 269.882 176.886V195.031H259.362Z" fill="#CAF2EF"/>
<path d="M299.495 53.024H214.711V126.263H299.495V53.024Z" fill="#CAF2EF"/>
<path fill-rule="evenodd" clip-rule="evenodd" d="M227.883 126.263C229.015 111.688 241.215 100.198 256.078 100.198C270.94 100.198 283.14 111.688 284.273 126.263H227.883Z" fill="#8ABBB8"/>
<path fill-rule="evenodd" clip-rule="evenodd" d="M272.937 53.024V73.7761C272.937 76.6791 270.582 79.0361 267.68 79.0361C264.777 79.0361 262.42 76.6791 262.42 73.7761V53.024H272.937ZM255.372 53.024V67.5661C255.372 70.4691 253.015 72.8251 250.112 72.8251C247.21 72.8251 244.852 70.4691 244.852 67.5661V53.024H255.372Z" fill="#8ABBB8"/>
<path d="M214.793 221.075C229.545 221.075 241.504 209.236 241.504 194.633C241.504 180.029 229.545 168.19 214.793 168.19C200.041 168.19 188.082 180.029 188.082 194.633C188.082 209.236 200.041 221.075 214.793 221.075Z" fill="#FFEAB5"/>
<path fill-rule="evenodd" clip-rule="evenodd" d="M214.795 174.008C226.294 174.008 235.63 183.25 235.63 194.633C235.63 206.016 226.294 215.258 214.795 215.258C214.328 215.258 213.949 215.633 213.949 216.096C213.949 216.558 214.328 216.933 214.795 216.933C227.228 216.933 237.322 206.941 237.322 194.633C237.322 182.325 227.228 172.332 214.795 172.332C214.328 172.332 213.949 172.708 213.949 173.17C213.949 173.632 214.328 174.008 214.795 174.008Z" fill="#FAC370"/>
<path fill-rule="evenodd" clip-rule="evenodd" d="M214.793 215.258C203.294 215.258 193.958 206.016 193.958 194.633C193.958 183.25 203.294 174.008 214.793 174.008C215.26 174.008 215.64 173.632 215.64 173.17C215.64 172.708 215.26 172.332 214.793 172.332C202.359 172.332 192.266 182.325 192.266 194.633C192.266 206.941 202.359 216.933 214.793 216.933C215.26 216.933 215.64 216.558 215.64 216.096C215.64 215.633 215.26 215.258 214.793 215.258Z" fill="#FAC370"/>
<path fill-rule="evenodd" clip-rule="evenodd" d="M218.007 220.885L217.461 216.529C217.403 216.07 217.733 215.651 218.197 215.594C218.661 215.537 219.082 215.863 219.141 216.322L219.681 220.632C219.129 220.733 218.571 220.818 218.007 220.885ZM223.002 219.8L221.489 215.38C221.34 214.942 221.577 214.466 222.02 214.317C222.462 214.169 222.943 214.404 223.092 214.842L224.596 219.234C224.073 219.439 223.542 219.628 223.002 219.8ZM200.067 216.692L202.42 212.863C202.662 212.468 203.183 212.342 203.582 212.582C203.982 212.823 204.109 213.338 203.867 213.733L201.507 217.573C201.016 217.294 200.536 217 200.067 216.692ZM236.769 209.657L232.881 206.809C232.507 206.534 232.427 206.009 232.705 205.637C232.982 205.266 233.512 205.187 233.888 205.462L237.689 208.247C237.398 208.727 237.09 209.198 236.769 209.657ZM189.406 202.875L193.974 200.839C194.399 200.65 194.902 200.838 195.093 201.259C195.284 201.681 195.094 202.177 194.668 202.367L189.987 204.453C189.777 203.935 189.582 203.409 189.406 202.875ZM240.71 188.219C240.846 188.759 240.966 189.305 241.067 189.857L236.564 190.909C236.11 191.015 235.653 190.736 235.547 190.286C235.438 189.836 235.721 189.384 236.174 189.278L240.71 188.219ZM192.72 179.743L196.745 182.349C197.136 182.602 197.246 183.121 196.99 183.508C196.734 183.895 196.21 184.004 195.819 183.751L191.811 181.155C192.099 180.674 192.403 180.203 192.72 179.743ZM195.347 176.51L198.62 178.893C198.996 179.167 199.077 179.692 198.799 180.064C198.523 180.437 197.992 180.517 197.616 180.243L194.223 177.771C194.583 177.339 194.959 176.919 195.347 176.51ZM230.23 173.058C230.691 173.382 231.141 173.719 231.579 174.071L228.653 177.723C228.362 178.086 227.829 178.146 227.463 177.859C227.098 177.572 227.037 177.044 227.326 176.682L230.23 173.058ZM225.698 170.491C226.214 170.721 226.722 170.966 227.22 171.225L225.156 175.056C224.936 175.464 224.424 175.619 224.011 175.401C223.599 175.184 223.444 174.676 223.664 174.268L225.698 170.491ZM208.802 168.859L209.993 173.065C210.119 173.51 209.856 173.973 209.406 174.097C208.956 174.222 208.489 173.962 208.364 173.517L207.165 169.286C207.703 169.127 208.248 168.985 208.802 168.859Z" fill="#FAC370"/>
<path d="M285.84 253.834C300.592 253.834 312.551 241.995 312.551 227.391C312.551 212.788 300.592 200.949 285.84 200.949C271.088 200.949 259.129 212.788 259.129 227.391C259.129 241.995 271.088 253.834 285.84 253.834Z" fill="#FFEAB5"/>
<path fill-rule="evenodd" clip-rule="evenodd" d="M285.842 206.766C297.341 206.766 306.677 216.008 306.677 227.391C306.677 238.774 297.341 248.016 285.842 248.016C285.375 248.016 284.996 248.391 284.996 248.854C284.996 249.316 285.375 249.692 285.842 249.692C298.275 249.692 308.369 239.699 308.369 227.391C308.369 215.083 298.275 205.091 285.842 205.091C285.375 205.091 284.996 205.466 284.996 205.928C284.996 206.391 285.375 206.766 285.842 206.766Z" fill="#FAC370"/>
<path fill-rule="evenodd" clip-rule="evenodd" d="M285.839 248.016C274.339 248.016 265.003 238.774 265.003 227.391C265.003 216.008 274.339 206.766 285.839 206.766C286.306 206.766 286.685 206.391 286.685 205.928C286.685 205.466 286.306 205.091 285.839 205.091C273.405 205.091 263.312 215.083 263.312 227.391C263.312 239.699 273.405 249.692 285.839 249.692C286.306 249.692 286.685 249.316 286.685 248.854C286.685 248.391 286.306 248.016 285.839 248.016Z" fill="#FAC370"/>
<path fill-rule="evenodd" clip-rule="evenodd" d="M289.054 253.643L288.508 249.287C288.45 248.828 288.78 248.41 289.244 248.352C289.708 248.295 290.129 248.622 290.188 249.081L290.728 253.391C290.176 253.492 289.618 253.576 289.054 253.643ZM294.049 252.559L292.536 248.138C292.387 247.7 292.624 247.224 293.067 247.076C293.509 246.928 293.99 247.163 294.138 247.6L295.643 251.993C295.12 252.197 294.589 252.386 294.049 252.559ZM271.114 249.451L273.466 245.621C273.708 245.226 274.23 245.101 274.629 245.341C275.029 245.581 275.156 246.097 274.914 246.492L272.554 250.332C272.063 250.053 271.583 249.759 271.114 249.451ZM307.815 242.416L303.928 239.568C303.554 239.293 303.474 238.768 303.752 238.396C304.029 238.024 304.559 237.946 304.935 238.221L308.736 241.006C308.445 241.486 308.137 241.956 307.815 242.416ZM260.453 235.633L265.021 233.598C265.446 233.408 265.948 233.596 266.14 234.018C266.331 234.44 266.141 234.936 265.715 235.126L261.033 237.212C260.824 236.694 260.629 236.167 260.453 235.633ZM311.757 220.978C311.893 221.518 312.013 222.064 312.114 222.616L307.611 223.667C307.157 223.773 306.7 223.494 306.593 223.044C306.485 222.594 306.768 222.143 307.221 222.036L311.757 220.978ZM263.767 212.501L267.792 215.107C268.183 215.36 268.293 215.88 268.037 216.267C267.781 216.654 267.257 216.763 266.866 216.509L262.858 213.914C263.146 213.433 263.45 212.962 263.767 212.501ZM266.394 209.269L269.667 211.652C270.043 211.926 270.124 212.451 269.846 212.823C269.57 213.195 269.039 213.275 268.663 213.001L265.27 210.529C265.63 210.098 266.006 209.677 266.394 209.269ZM301.277 205.817C301.738 206.14 302.188 206.478 302.626 206.83L299.7 210.482C299.409 210.844 298.876 210.905 298.51 210.618C298.145 210.33 298.084 209.803 298.373 209.441L301.277 205.817ZM296.745 203.25C297.261 203.479 297.769 203.725 298.266 203.984L296.203 207.815C295.983 208.223 295.47 208.377 295.057 208.16C294.646 207.942 294.491 207.434 294.711 207.027L296.745 203.25ZM279.849 201.618L281.04 205.823C281.166 206.268 280.903 206.731 280.453 206.856C280.003 206.981 279.536 206.721 279.41 206.276L278.212 202.045C278.75 201.886 279.295 201.743 279.849 201.618Z" fill="#FAC370"/>
<path d="M156.996 52.885C171.748 52.885 183.707 41.046 183.707 26.443C183.707 11.839 171.748 0 156.996 0C142.244 0 130.285 11.839 130.285 26.443C130.285 41.046 142.244 52.885 156.996 52.885Z" fill="#FFEAB5"/>
<path fill-rule="evenodd" clip-rule="evenodd" d="M156.994 5.81699C168.493 5.81699 177.829 15.059 177.829 26.442C177.829 37.826 168.493 47.067 156.994 47.067C156.527 47.067 156.148 47.443 156.148 47.905C156.148 48.367 156.527 48.743 156.994 48.743C169.427 48.743 179.521 38.75 179.521 26.442C179.521 14.134 169.427 4.14197 156.994 4.14197C156.527 4.14197 156.148 4.51698 156.148 4.97998C156.148 5.44198 156.527 5.81699 156.994 5.81699Z" fill="#FAC370"/>
<path fill-rule="evenodd" clip-rule="evenodd" d="M156.995 47.067C145.496 47.067 136.16 37.826 136.16 26.442C136.16 15.059 145.496 5.81699 156.995 5.81699C157.463 5.81699 157.842 5.44198 157.842 4.97998C157.842 4.51698 157.463 4.14197 156.995 4.14197C144.562 4.14197 134.469 14.134 134.469 26.442C134.469 38.75 144.562 48.743 156.995 48.743C157.463 48.743 157.842 48.367 157.842 47.905C157.842 47.443 157.463 47.067 156.995 47.067Z" fill="#FAC370"/>
<path fill-rule="evenodd" clip-rule="evenodd" d="M160.21 52.6951L159.664 48.3381C159.606 47.8791 159.936 47.4611 160.4 47.4041C160.864 47.3471 161.285 47.6731 161.344 48.1321L161.884 52.4421C161.333 52.5431 160.774 52.6281 160.21 52.6951ZM165.205 51.61L163.692 47.1901C163.543 46.7521 163.78 46.2761 164.223 46.1271C164.665 45.9791 165.146 46.2141 165.295 46.6521L166.799 51.0441C166.276 51.2491 165.745 51.438 165.205 51.61ZM142.27 48.5021L144.623 44.6731C144.865 44.2781 145.386 44.1521 145.785 44.3921C146.185 44.6321 146.312 45.1481 146.07 45.5431L143.71 49.3831C143.22 49.1041 142.739 48.8101 142.27 48.5021ZM178.972 41.4671L175.084 38.6191C174.71 38.3441 174.63 37.8191 174.908 37.4471C175.186 37.0751 175.715 36.9971 176.091 37.2721L179.892 40.0571C179.601 40.5371 179.293 41.0071 178.972 41.4671ZM131.609 34.6841L136.177 32.649C136.602 32.459 137.105 32.6481 137.296 33.0691C137.487 33.4911 137.298 33.9871 136.871 34.1771L132.19 36.2631C131.98 35.7451 131.785 35.2191 131.609 34.6841ZM182.913 20.0291C183.049 20.5691 183.169 21.1151 183.271 21.6671L178.767 22.7181C178.313 22.8251 177.856 22.5451 177.75 22.0961C177.641 21.6451 177.924 21.1941 178.378 21.0881L182.913 20.0291ZM134.923 11.5531L138.948 14.1591C139.339 14.4121 139.449 14.9311 139.193 15.3181C138.938 15.7051 138.413 15.8141 138.022 15.5611L134.014 12.9651C134.302 12.4841 134.607 12.0131 134.923 11.5531ZM137.55 8.32007L140.823 10.7031C141.199 10.9771 141.28 11.5021 141.002 11.8741C140.727 12.2471 140.195 12.3271 139.819 12.0531L136.426 9.58109C136.786 9.14909 137.162 8.72907 137.55 8.32007ZM172.434 4.86807C172.894 5.19207 173.344 5.52907 173.783 5.88107L170.856 9.53308C170.565 9.89508 170.032 9.95607 169.666 9.66907C169.301 9.38107 169.24 8.85407 169.529 8.49207L172.434 4.86807ZM167.901 2.30109C168.417 2.53009 168.925 2.77606 169.423 3.03506L167.36 6.86606C167.14 7.27406 166.627 7.42906 166.214 7.21106C165.802 6.99406 165.647 6.48606 165.867 6.07806L167.901 2.30109ZM151.005 0.669067L152.197 4.87408C152.322 5.32008 152.059 5.78207 151.609 5.90707C151.159 6.03207 150.692 5.77206 150.567 5.32706L149.368 1.09607C149.907 0.937069 150.452 0.795067 151.005 0.669067Z" fill="#FAC370"/>
<path d="M66.8047 150.146C81.5567 150.146 93.5148 138.307 93.5148 123.704C93.5148 109.1 81.5567 97.261 66.8047 97.261C52.0517 97.261 40.0938 109.1 40.0938 123.704C40.0938 138.307 52.0517 150.146 66.8047 150.146Z" fill="#FFEAB5"/>
<path fill-rule="evenodd" clip-rule="evenodd" d="M66.8069 103.079C78.3049 103.079 87.6409 112.321 87.6409 123.704C87.6409 135.087 78.3049 144.329 66.8069 144.329C66.3399 144.329 65.9609 144.704 65.9609 145.167C65.9609 145.629 66.3399 146.004 66.8069 146.004C79.2399 146.004 89.334 136.012 89.334 123.704C89.334 111.396 79.2399 101.403 66.8069 101.403C66.3399 101.403 65.9609 101.779 65.9609 102.241C65.9609 102.704 66.3399 103.079 66.8069 103.079Z" fill="#FAC370"/>
<path fill-rule="evenodd" clip-rule="evenodd" d="M66.8044 144.329C55.3044 144.329 45.9684 135.087 45.9684 123.704C45.9684 112.32 55.3044 103.079 66.8044 103.079C67.2714 103.079 67.6503 102.703 67.6503 102.241C67.6503 101.779 67.2714 101.403 66.8044 101.403C54.3704 101.403 44.2773 111.396 44.2773 123.704C44.2773 136.012 54.3704 146.004 66.8044 146.004C67.2714 146.004 67.6503 145.629 67.6503 145.166C67.6503 144.704 67.2714 144.329 66.8044 144.329Z" fill="#FAC370"/>
<path fill-rule="evenodd" clip-rule="evenodd" d="M70.0189 149.956L69.4719 145.6C69.4149 145.141 69.7449 144.722 70.2089 144.665C70.6719 144.608 71.094 144.934 71.153 145.393L71.6929 149.703C71.1409 149.805 70.5829 149.889 70.0189 149.956ZM75.0139 148.871L73.5009 144.451C73.3519 144.013 73.5889 143.537 74.0319 143.389C74.4739 143.24 74.954 143.475 75.103 143.913L76.608 148.305C76.085 148.51 75.5539 148.699 75.0139 148.871ZM52.0789 145.763L54.431 141.934C54.673 141.539 55.1949 141.413 55.5939 141.653C55.9929 141.894 56.1199 142.409 55.8779 142.804L53.5189 146.644C53.0279 146.365 52.5479 146.071 52.0789 145.763ZM88.78 138.728L84.8929 135.88C84.5189 135.605 84.4389 135.08 84.7169 134.708C84.9939 134.337 85.524 134.258 85.9 134.533L89.7009 137.318C89.4099 137.798 89.102 138.269 88.78 138.728ZM41.418 131.946L45.986 129.91C46.411 129.721 46.9129 129.909 47.1049 130.33C47.2959 130.752 47.1059 131.248 46.6799 131.438L41.9979 133.524C41.7879 133.006 41.594 132.48 41.418 131.946ZM92.7219 117.29C92.8569 117.83 92.9779 118.376 93.0789 118.928L88.575 119.98C88.122 120.086 87.6649 119.807 87.5579 119.357C87.4499 118.907 87.7329 118.455 88.1859 118.349L92.7219 117.29ZM44.7319 108.814L48.7559 111.42C49.1469 111.673 49.257 112.192 49.002 112.58C48.746 112.966 48.2219 113.075 47.8309 112.822L43.8229 110.226C44.1109 109.745 44.4149 109.274 44.7319 108.814ZM47.358 105.581L50.632 107.964C51.007 108.238 51.0889 108.763 50.8109 109.135C50.5349 109.508 50.0039 109.588 49.6279 109.314L46.2349 106.842C46.5949 106.41 46.971 105.99 47.358 105.581ZM82.2419 102.129C82.7029 102.453 83.1529 102.79 83.5909 103.142L80.6649 106.794C80.3739 107.157 79.8409 107.217 79.4749 106.93C79.1089 106.643 79.049 106.115 79.338 105.753L82.2419 102.129ZM77.71 99.5621C78.226 99.7921 78.734 100.037 79.231 100.297L77.168 104.127C76.948 104.535 76.435 104.69 76.022 104.472C75.611 104.255 75.4549 103.747 75.6749 103.339L77.71 99.5621ZM60.814 97.9301L62.0049 102.136C62.1299 102.581 61.868 103.044 61.418 103.168C60.968 103.293 60.5009 103.033 60.3749 102.588L59.1769 98.3571C59.7149 98.1981 60.26 98.0561 60.814 97.9301Z" fill="#FAC370"/>
<path d="M431.773 114.39C446.525 114.39 458.484 102.551 458.484 87.948C458.484 73.344 446.525 61.505 431.773 61.505C417.021 61.505 405.062 73.344 405.062 87.948C405.062 102.551 417.021 114.39 431.773 114.39Z" fill="#FFEAB5"/>
<path fill-rule="evenodd" clip-rule="evenodd" d="M431.776 67.3221C443.274 67.3221 452.61 76.5641 452.61 87.9471C452.61 99.3301 443.274 108.572 431.776 108.572C431.309 108.572 430.93 108.948 430.93 109.41C430.93 109.872 431.309 110.248 431.776 110.248C444.208 110.248 454.303 100.255 454.303 87.9471C454.303 75.6391 444.208 65.6471 431.776 65.6471C431.309 65.6471 430.93 66.022 430.93 66.485C430.93 66.947 431.309 67.3221 431.776 67.3221Z" fill="#FAC370"/>
<path fill-rule="evenodd" clip-rule="evenodd" d="M431.777 108.572C420.277 108.572 410.941 99.3301 410.941 87.9471C410.941 76.5641 420.277 67.3221 431.777 67.3221C432.244 67.3221 432.623 66.947 432.623 66.485C432.623 66.022 432.244 65.6471 431.777 65.6471C419.343 65.6471 409.25 75.6391 409.25 87.9471C409.25 100.255 419.343 110.248 431.777 110.248C432.244 110.248 432.623 109.872 432.623 109.41C432.623 108.948 432.244 108.572 431.777 108.572Z" fill="#FAC370"/>
<path fill-rule="evenodd" clip-rule="evenodd" d="M434.989 114.2L434.442 109.844C434.385 109.385 434.715 108.966 435.178 108.909C435.642 108.852 436.064 109.178 436.123 109.637L436.663 113.947C436.111 114.048 435.552 114.133 434.989 114.2ZM439.983 113.115L438.47 108.695C438.321 108.257 438.558 107.781 439.002 107.632C439.443 107.484 439.924 107.719 440.073 108.157L441.578 112.549C441.055 112.754 440.523 112.943 439.983 113.115ZM417.048 110.007L419.401 106.178C419.643 105.783 420.164 105.657 420.564 105.897C420.963 106.138 421.09 106.653 420.848 107.048L418.489 110.888C417.998 110.609 417.517 110.315 417.048 110.007ZM453.75 102.972L449.862 100.124C449.488 99.849 449.409 99.324 449.686 98.952C449.964 98.581 450.494 98.502 450.869 98.777L454.671 101.562C454.38 102.042 454.072 102.513 453.75 102.972ZM406.387 96.1899L410.955 94.1539C411.38 93.9649 411.883 94.153 412.074 94.574C412.265 94.996 412.076 95.4919 411.649 95.6819L406.968 97.7679C406.758 97.2499 406.564 96.7239 406.387 96.1899ZM457.692 81.5339C457.827 82.0739 457.947 82.6199 458.049 83.1719L453.545 84.2239C453.092 84.3299 452.635 84.05 452.528 83.601C452.42 83.151 452.702 82.699 453.156 82.593L457.692 81.5339ZM409.701 73.0579L413.726 75.6639C414.117 75.9169 414.227 76.4359 413.971 76.8229C413.716 77.2099 413.191 77.319 412.8 77.066L408.792 74.47C409.08 73.989 409.385 73.5179 409.701 73.0579ZM412.328 69.825L415.601 72.2079C415.977 72.4819 416.058 73.007 415.781 73.379C415.505 73.752 414.973 73.8319 414.598 73.5579L411.204 71.0859C411.565 70.6539 411.941 70.234 412.328 69.825ZM447.212 66.3729C447.672 66.6969 448.122 67.0339 448.561 67.3859L445.635 71.038C445.343 71.401 444.81 71.461 444.445 71.174C444.079 70.887 444.018 70.3589 444.308 69.9969L447.212 66.3729ZM442.679 63.806C443.196 64.036 443.703 64.281 444.201 64.54L442.138 68.371C441.918 68.779 441.405 68.9339 440.992 68.7159C440.581 68.4989 440.425 67.9909 440.645 67.5829L442.679 63.806ZM425.783 62.174L426.975 66.3799C427.1 66.8249 426.838 67.2879 426.388 67.4119C425.937 67.5369 425.47 67.277 425.345 66.832L424.147 62.601C424.685 62.442 425.23 62.3 425.783 62.174Z" fill="#FAC370"/>
<path fill-rule="evenodd" clip-rule="evenodd" d="M336.516 55.734V51.563C336.516 50.873 337.076 50.313 337.766 50.313C338.456 50.313 339.016 50.873 339.016 51.563V55.734H343.186C343.876 55.734 344.436 56.294 344.436 56.984C344.436 57.673 343.876 58.234 343.186 58.234H339.016V62.404C339.016 63.094 338.456 63.654 337.766 63.654C337.076 63.654 336.516 63.094 336.516 62.404V58.234H332.344C331.654 58.234 331.094 57.673 331.094 56.984C331.094 56.294 331.654 55.734 332.344 55.734H336.516Z" fill="#FD9500"/>
<path fill-rule="evenodd" clip-rule="evenodd" d="M132.61 103.045V98.875C132.61 98.185 133.17 97.625 133.86 97.625C134.55 97.625 135.11 98.185 135.11 98.875V103.045H139.28C139.97 103.045 140.53 103.605 140.53 104.295C140.53 104.985 139.97 105.545 139.28 105.545H135.11V109.716C135.11 110.406 134.55 110.966 133.86 110.966C133.17 110.966 132.61 110.406 132.61 109.716V105.545H128.438C127.748 105.545 127.188 104.985 127.188 104.295C127.188 103.605 127.748 103.045 128.438 103.045H132.61Z" fill="#FD9500"/>
<path fill-rule="evenodd" clip-rule="evenodd" d="M418.146 145.808V141.637C418.146 140.947 418.706 140.387 419.396 140.387C420.086 140.387 420.646 140.947 420.646 141.637V145.808H424.816C425.506 145.808 426.066 146.368 426.066 147.058C426.066 147.747 425.506 148.308 424.816 148.308H420.646V152.478C420.646 153.168 420.086 153.728 419.396 153.728C418.706 153.728 418.146 153.168 418.146 152.478V148.308H413.973C413.283 148.308 412.723 147.747 412.723 147.058C412.723 146.368 413.283 145.808 413.973 145.808H418.146Z" fill="#FD9500"/>
</svg>
