<svg width="406" height="346" viewBox="0 0 406 346" fill="none" xmlns="http://www.w3.org/2000/svg">
<path d="M349.02 327.6C349.02 327.6 367.64 308.1 380.8 279.58C409.67 217.02 385.13 148.31 340.07 134.78C252.4 108.46 268.15 236.77 135.89 119.1C60.3301 51.8896 0 115.52 0 149.85C0 183.13 6.32973 204.27 89.9697 234.3C152.1 256.6 -4.9701 270.24 20.1499 321.5C34.1299 350 349.02 327.6 349.02 327.6Z" fill="#EDE9FE"/>
<path d="M405.839 335.3C405.839 341.2 316.52 345.9 206.35 345.9C96.1696 345.9 6.85938 341.2 6.85938 335.3C6.85938 329.4 96.1696 324.6 206.35 324.6C316.52 324.6 405.839 329.4 405.839 335.3Z" fill="#ACBFE2"/>
<path d="M88.8809 2.37012C88.8809 2.37012 97.9807 47.7 122.681 85C122.681 85 104.481 26.7301 88.8809 2.37012Z" fill="#353A66"/>
<path d="M158.36 0C158.36 0 137.32 41.18 133.5 85.75C133.5 85.75 155.44 28.79 158.36 0Z" fill="#FFB025"/>
<path d="M220.929 43.0801C220.929 43.0801 177.439 58.8 144.209 88.75C144.209 88.75 199.139 62.1201 220.929 43.0801Z" fill="#D086E5"/>
<path d="M233.489 98.1698C233.489 98.1698 188.199 88.8599 144.209 97.0399C144.209 97.0399 204.969 103.03 233.489 98.1698Z" fill="#7585F8"/>
<path d="M219.831 151.86C219.831 151.86 186.75 119.55 145.32 102.66C145.32 102.66 193.211 140.53 219.831 151.86Z" fill="#353A66"/>
<path d="M155.03 187.22C155.03 187.22 152.51 141.04 133.4 100.59C133.4 100.59 143.08 160.87 155.03 187.22Z" fill="#FFB025"/>
<path d="M78.6094 181.37C78.6094 181.37 107.76 145.47 120.77 102.66C120.77 102.66 87.4494 153.82 78.6094 181.37Z" fill="#353A66"/>
<path d="M31.4902 95.9102C31.4902 95.9102 76.8605 104.85 120.771 96.3096C120.771 96.3096 59.9702 90.8202 31.4902 95.9102Z" fill="#7585F8"/>
<path d="M61.7695 53.8701C61.7695 53.8701 85.9193 76.9896 115.989 88.8896C115.989 88.8896 81.0995 61.8701 61.7695 53.8701Z" fill="#FFB025"/>
<path d="M60.7793 135.19C60.7793 135.19 92.4692 124.53 116.969 103.42C116.969 103.42 76.8393 121.78 60.7793 135.19Z" fill="#D086E5"/>
<path d="M123.8 170.66C123.8 170.66 131.21 138.06 125.96 106.15C125.96 106.15 120.72 149.97 123.8 170.66Z" fill="#353A66"/>
<path d="M173.12 152.21C173.12 152.21 162.38 127.05 143.59 108.43C143.59 108.43 161.15 139.98 173.12 152.21Z" fill="#353A66"/>
<path d="M127.73 71.5498C127.73 71.5498 129.32 50.1296 122.93 30.3496C122.93 30.3496 123.8 58.6998 127.73 71.5498Z" fill="#353A66"/>
<path d="M149.32 70.4102C149.32 70.4102 167.301 58.6496 179.121 41.5596C179.121 41.5596 157.13 59.4702 149.32 70.4102Z" fill="#353A66"/>
<path d="M106.291 16.5403L109.28 22.5901C109.37 22.7601 109.53 22.8804 109.72 22.9104L116.391 23.8801C116.871 23.9501 117.06 24.5304 116.71 24.8704L111.88 29.5803C111.75 29.7103 111.68 29.9001 111.71 30.0901L112.86 36.7405C112.94 37.2105 112.44 37.5798 112.01 37.3498L106.05 34.2102C105.88 34.1202 105.67 34.1202 105.51 34.2102L99.5303 37.3498C99.1103 37.5798 98.6105 37.2105 98.6905 36.7405L99.8306 30.0901C99.8606 29.9001 99.8007 29.7103 99.6607 29.5803L94.8404 24.8704C94.4904 24.5304 94.6804 23.9501 95.1504 23.8801L101.831 22.9104C102.021 22.8804 102.191 22.7601 102.271 22.5901L105.26 16.5403C105.47 16.1103 106.081 16.1103 106.291 16.5403Z" fill="#FFB025"/>
<path d="M99.5301 37.3496L99.8304 37.1904L110.05 22.96L109.72 22.9102C109.52 22.8802 109.36 22.7598 109.28 22.5898L108.3 20.5996L99.4603 32.21L98.6903 36.7402C98.6103 37.2102 99.1001 37.5796 99.5301 37.3496Z" fill="#FED150"/>
<path d="M106.05 34.21L106.28 34.3398L113.49 23.46L112.121 23.25L103.74 35.1396L105.5 34.21C105.67 34.12 105.87 34.12 106.05 34.21Z" fill="#FED150"/>
<path d="M99.5508 25.3203C99.6508 25.2103 99.8208 24.7998 99.8208 24.7998C99.8208 24.7998 100.011 25.1998 100.111 25.2998C100.221 25.3998 100.641 25.5703 100.641 25.5703C100.641 25.5703 100.231 25.7601 100.131 25.8701C100.031 25.9701 99.8608 26.3896 99.8608 26.3896C99.8608 26.3896 99.6708 25.9899 99.5708 25.8799C99.4608 25.7799 99.041 25.6104 99.041 25.6104C99.041 25.6104 99.4508 25.4303 99.5508 25.3203Z" fill="#F7F7FC"/>
<path d="M189.38 131.74L192.37 137.79C192.45 137.96 192.61 138.081 192.8 138.111L199.47 139.071C199.95 139.141 200.14 139.73 199.8 140.06L194.96 144.77C194.83 144.91 194.77 145.1 194.8 145.29L195.94 151.93C196.02 152.41 195.52 152.77 195.1 152.54L189.13 149.41C188.96 149.32 188.76 149.32 188.59 149.41L182.62 152.54C182.19 152.77 181.7 152.41 181.78 151.93L182.92 145.29C182.95 145.1 182.89 144.91 182.75 144.77L177.92 140.06C177.57 139.73 177.76 139.141 178.24 139.071L184.92 138.111C185.11 138.081 185.27 137.96 185.35 137.79L188.34 131.74C188.55 131.31 189.16 131.31 189.38 131.74Z" fill="#FFB025"/>
<path d="M182.62 152.54L182.92 152.39L193.14 138.15L192.8 138.11C192.61 138.08 192.45 137.96 192.37 137.79L191.39 135.8L182.55 147.4L181.78 151.93C181.7 152.41 182.19 152.77 182.62 152.54Z" fill="#FED150"/>
<path d="M189.13 149.41L189.37 149.54L196.58 138.66L195.21 138.45L186.83 150.33L188.59 149.41C188.75 149.32 188.96 149.32 189.13 149.41Z" fill="#FED150"/>
<path d="M182.629 140.52C182.729 140.41 182.899 139.99 182.899 139.99C182.899 139.99 183.089 140.4 183.189 140.5C183.299 140.6 183.719 140.77 183.719 140.77C183.719 140.77 183.319 140.96 183.209 141.07C183.109 141.17 182.939 141.59 182.939 141.59C182.939 141.59 182.749 141.18 182.649 141.08C182.539 140.98 182.119 140.81 182.119 140.81C182.119 140.81 182.529 140.63 182.629 140.52Z" fill="#F7F7FC"/>
<path d="M89.191 135.88L90.9708 139.5C91.0208 139.59 91.121 139.67 91.231 139.69L95.211 140.259C95.491 140.299 95.6109 140.649 95.4009 140.849L92.5308 143.66C92.4408 143.74 92.4007 143.86 92.4307 143.96L93.1109 147.929C93.1609 148.219 92.8611 148.429 92.6011 148.299L89.0411 146.429C88.9411 146.369 88.8208 146.369 88.7208 146.429L85.1612 148.299C84.9012 148.429 84.6012 148.219 84.6612 147.929L85.3409 143.96C85.3609 143.86 85.3208 143.74 85.2408 143.66L82.3609 140.849C82.1509 140.649 82.2608 140.299 82.5508 140.259L86.5308 139.69C86.6508 139.67 86.7508 139.6 86.8008 139.5L88.5811 135.88C88.7011 135.62 89.061 135.62 89.191 135.88Z" fill="#FFB025"/>
<path d="M85.1499 148.3L85.33 148.21L91.4296 139.71L91.2299 139.68C91.1199 139.67 91.0197 139.59 90.9697 139.49L90.3901 138.3L85.1098 145.22L84.6601 147.93C84.6001 148.22 84.8999 148.43 85.1499 148.3Z" fill="#FED150"/>
<path d="M89.04 146.43L89.1899 146.5L93.4897 140.01L92.6699 139.89L87.6699 146.98L88.7197 146.43C88.8197 146.37 88.94 146.37 89.04 146.43Z" fill="#FED150"/>
<path d="M85.1689 141.12C85.2289 141.06 85.3291 140.81 85.3291 140.81C85.3291 140.81 85.439 141.06 85.499 141.11C85.569 141.17 85.8188 141.27 85.8188 141.27C85.8188 141.27 85.5688 141.38 85.5088 141.45C85.4488 141.51 85.3491 141.76 85.3491 141.76C85.3491 141.76 85.2387 141.52 85.1787 141.46C85.1087 141.39 84.8691 141.3 84.8691 141.3C84.8691 141.3 85.1089 141.18 85.1689 141.12Z" fill="#F7F7FC"/>
<path d="M273.881 72.8203C273.881 72.8203 280.241 104.48 297.491 130.53C297.491 130.53 284.781 89.8403 273.881 72.8203Z" fill="#353A66"/>
<path d="M322.409 71.1602C322.409 71.1602 307.709 99.92 305.049 131.04C305.049 131.04 320.369 91.2602 322.409 71.1602Z" fill="#FFB025"/>
<path d="M366.1 101.25C366.1 101.25 335.729 112.22 312.529 133.14C312.529 133.14 350.88 114.54 366.1 101.25Z" fill="#D086E5"/>
<path d="M374.87 139.72C374.87 139.72 343.249 133.22 312.529 138.93C312.529 138.93 354.95 143.11 374.87 139.72Z" fill="#7585F8"/>
<path d="M365.329 177.21C365.329 177.21 342.229 154.65 313.299 142.86C313.299 142.86 346.749 169.3 365.329 177.21Z" fill="#353A66"/>
<path d="M320.081 201.9C320.081 201.9 318.32 169.66 304.98 141.41C304.98 141.41 311.731 183.5 320.081 201.9Z" fill="#FFB025"/>
<path d="M266.721 197.82C266.721 197.82 287.071 172.75 296.151 142.86C296.151 142.86 272.891 178.58 266.721 197.82Z" fill="#353A66"/>
<path d="M233.811 138.139C233.811 138.139 265.491 144.39 296.161 138.41C296.161 138.41 253.701 134.589 233.811 138.139Z" fill="#7585F8"/>
<path d="M254.959 108.78C254.959 108.78 271.819 124.93 292.819 133.24C292.819 133.24 268.449 114.37 254.959 108.78Z" fill="#FFB025"/>
<path d="M254.27 165.57C254.27 165.57 276.4 158.13 293.5 143.38C293.5 143.38 265.48 156.21 254.27 165.57Z" fill="#D086E5"/>
<path d="M298.27 190.34C298.27 190.34 303.45 167.57 299.78 145.29C299.78 145.29 296.13 175.89 298.27 190.34Z" fill="#353A66"/>
<path d="M332.72 177.45C332.72 177.45 325.22 159.89 312.09 146.88C312.09 146.88 324.36 168.91 332.72 177.45Z" fill="#353A66"/>
<path d="M301.02 121.13C301.02 121.13 302.12 106.17 297.67 92.3604C297.67 92.3604 298.27 112.16 301.02 121.13Z" fill="#353A66"/>
<path d="M316.09 120.33C316.09 120.33 328.65 112.12 336.9 100.19C336.9 100.19 321.55 112.7 316.09 120.33Z" fill="#353A66"/>
<path d="M286.039 82.7201L288.129 86.9408C288.189 87.0608 288.308 87.1503 288.428 87.1703L293.089 87.8402C293.429 87.8902 293.559 88.3007 293.319 88.5307L289.949 91.8207C289.849 91.9207 289.809 92.0501 289.829 92.1801L290.629 96.8207C290.689 97.1507 290.339 97.4104 290.039 97.2504L285.879 95.06C285.759 94.99 285.619 94.99 285.499 95.06L281.329 97.2504C281.029 97.4104 280.679 97.1507 280.739 96.8207L281.539 92.1801C281.559 92.0501 281.518 91.9207 281.428 91.8207L278.049 88.5307C277.809 88.3007 277.949 87.8902 278.269 87.8402L282.939 87.1703C283.069 87.1503 283.179 87.0608 283.239 86.9408L285.329 82.7201C285.469 82.4201 285.899 82.4201 286.039 82.7201Z" fill="#FFB025"/>
<path d="M281.33 97.25L281.529 97.1396L288.669 87.2002L288.439 87.1602C288.309 87.1502 288.189 87.0604 288.129 86.9404L287.449 85.5498L281.279 93.6504L280.739 96.8203C280.679 97.1503 281.03 97.41 281.33 97.25Z" fill="#FED150"/>
<path d="M285.87 95.0596L286.04 95.1396L291.08 87.5498L290.12 87.4102L284.27 95.71L285.489 95.0596C285.619 94.9896 285.76 94.9896 285.87 95.0596Z" fill="#FED150"/>
<path d="M281.34 88.8496C281.41 88.7696 281.53 88.4805 281.53 88.4805C281.53 88.4805 281.66 88.7601 281.74 88.8301C281.81 88.9101 282.101 89.0303 282.101 89.0303C282.101 89.0303 281.82 89.1505 281.74 89.2305C281.67 89.3105 281.561 89.5996 281.561 89.5996C281.561 89.5996 281.421 89.3102 281.351 89.2402C281.271 89.1702 280.98 89.0498 280.98 89.0498C280.98 89.0498 281.27 88.9196 281.34 88.8496Z" fill="#F7F7FC"/>
<path d="M344.059 163.161L346.139 167.38C346.209 167.5 346.319 167.591 346.449 167.611L351.109 168.281C351.439 168.341 351.569 168.741 351.339 168.981L347.959 172.27C347.869 172.36 347.819 172.5 347.849 172.63L348.639 177.27C348.699 177.6 348.349 177.851 348.059 177.691L343.889 175.5C343.769 175.44 343.629 175.44 343.509 175.5L339.349 177.691C339.049 177.851 338.699 177.6 338.759 177.27L339.549 172.63C339.579 172.5 339.529 172.36 339.439 172.27L336.069 168.981C335.819 168.751 335.959 168.341 336.289 168.281L340.949 167.611C341.089 167.591 341.199 167.51 341.259 167.38L343.339 163.161C343.489 162.861 343.909 162.861 344.059 163.161Z" fill="#FFB025"/>
<path d="M339.341 177.69L339.551 177.58L346.681 167.64L346.451 167.61C346.321 167.58 346.201 167.5 346.151 167.38L345.461 166L339.301 174.1L338.751 177.26C338.691 177.59 339.041 177.85 339.341 177.69Z" fill="#FED150"/>
<path d="M343.89 175.5L344.06 175.59L349.089 167.99L348.129 167.85L342.279 176.14L343.509 175.5C343.629 175.44 343.77 175.44 343.89 175.5Z" fill="#FED150"/>
<path d="M339.35 169.29C339.43 169.21 339.54 168.92 339.54 168.92C339.54 168.92 339.67 169.2 339.75 169.28C339.83 169.35 340.12 169.47 340.12 169.47C340.12 169.47 339.83 169.6 339.76 169.68C339.69 169.75 339.57 170.04 339.57 170.04C339.57 170.04 339.44 169.76 339.36 169.69C339.29 169.61 339 169.5 339 169.5C339 169.5 339.28 169.36 339.35 169.29Z" fill="#F7F7FC"/>
<path d="M274.11 166.05L275.35 168.58C275.38 168.65 275.45 168.7 275.53 168.71L278.31 169.12C278.51 169.14 278.59 169.38 278.45 169.52L276.43 171.49C276.37 171.54 276.35 171.62 276.36 171.7L276.84 174.47C276.87 174.67 276.66 174.821 276.49 174.731L273.99 173.42C273.92 173.38 273.84 173.38 273.77 173.42L271.28 174.731C271.1 174.821 270.89 174.66 270.93 174.47L271.4 171.7C271.42 171.62 271.39 171.54 271.33 171.49L269.32 169.52C269.17 169.38 269.25 169.14 269.45 169.12L272.23 168.71C272.31 168.7 272.38 168.64 272.41 168.58L273.66 166.05C273.76 165.87 274.01 165.87 274.11 166.05Z" fill="#FFB025"/>
<path d="M271.29 174.73L271.411 174.66L275.67 168.73L275.53 168.71C275.46 168.7 275.39 168.64 275.35 168.58L274.94 167.75L271.26 172.58L270.94 174.47C270.9 174.66 271.12 174.82 271.29 174.73Z" fill="#FED150"/>
<path d="M274.001 173.42L274.091 173.47L277.101 168.94L276.531 168.85L273.041 173.81L273.771 173.42C273.841 173.38 273.931 173.38 274.001 173.42Z" fill="#FED150"/>
<path d="M271.29 169.72C271.34 169.67 271.4 169.5 271.4 169.5C271.4 169.5 271.49 169.66 271.53 169.71C271.57 169.75 271.74 169.82 271.74 169.82C271.74 169.82 271.58 169.9 271.53 169.94C271.49 169.98 271.42 170.16 271.42 170.16C271.42 170.16 271.35 169.99 271.3 169.95C271.26 169.9 271.08 169.84 271.08 169.84C271.08 169.84 271.25 169.75 271.29 169.72Z" fill="#F7F7FC"/>
<path d="M140.791 185.3C140.791 185.3 136.401 189.33 141.621 192.89C146.831 196.46 170.151 179.87 173.721 170.66C175.451 166.2 177.841 135.81 177.841 135.81C177.841 135.81 178.111 124.29 173.171 131.7C173.171 131.7 171.531 138.29 172.631 142.13C173.721 145.97 165.221 164.08 165.221 164.08C165.221 164.08 141.751 181.92 140.791 185.3Z" fill="#E28C71"/>
<path d="M133.799 296.81C136.799 301.7 139.989 303.3 138.949 299.9C137.909 296.45 138.139 296.11 138.969 295.57C149.509 288.79 171.5 293.9 183.75 281.77L169.98 269.3C167.94 270.83 166.11 272.06 164.6 272.76C153.32 278.11 130.789 291.88 133.799 296.81Z" fill="#EE9D7F"/>
<path d="M134.319 293.44C134.319 293.44 131.429 295.33 135.549 299.4C139.659 303.4 140.159 301.9 138.719 299.1C137.299 296.32 134.169 296.34 134.319 293.44Z" fill="#7585F8"/>
<path d="M141.529 157.31C141.529 157.31 139.659 152.771 135.169 153.951C122.559 157.251 102.63 169.151 106.85 187.661C112.4 212.011 102.629 205.94 98.9693 211.31C89.9393 224.5 109.419 240.88 126.029 228.81C135.259 222.12 130.37 201.93 132.73 197.09C135.09 192.28 139.84 190.831 140.5 182.691C141.15 174.541 142.55 164.311 143.31 162.191C144.04 160.051 143.189 157.91 141.529 157.31Z" fill="#353A66"/>
<path d="M140.499 182.69C140.819 178.74 141.279 174.329 141.809 170.559C140.129 170.289 139.599 173.29 137.089 173.24C137.089 173.24 125.709 171.99 128.259 175.25C130.759 178.5 125.319 189.289 118.679 189.349C112.039 189.419 107.589 202.35 113.429 205.78C119.279 209.18 116.629 215.61 111.869 217.36C101.869 220.98 109.419 234.11 121.239 231.5C139.519 224.96 130.169 205.489 134.209 200.429C134.289 200.339 132.099 198.07 132.169 197.98C132.399 197.67 132.589 197.399 132.729 197.089C135.089 192.269 139.839 190.83 140.499 182.69Z" fill="#353A66"/>
<path d="M159.941 222.429C159.941 222.429 155.961 220.729 157.761 204.759C158.601 197.139 161.521 196.61 155.201 188.28C148.661 179.67 136.871 176.13 133.121 181.7C126.081 192.19 128.771 197.38 129.431 204.67C129.831 208.9 133.461 217 127.721 227.74L159.941 222.429Z" fill="#EE9D7F"/>
<path d="M125.01 226.52C125.01 226.52 146.55 229.16 159.94 222.43C159.94 222.43 165.32 198.76 157.18 191.07C157.18 191.07 150.45 195.14 144.99 187.42C140.57 181.19 134.99 179.95 134.99 179.95C134.99 179.95 132.81 181.05 131.24 182.32C128.58 184.44 127.68 187.12 127.68 187.12L125.01 226.52Z" fill="#FCDCDA"/>
<path d="M133.1 164.58C133.1 164.58 138.49 174.45 136.89 178.57C135.98 180.91 147.539 185.51 146.229 183.03C143.799 178.46 144.199 176.51 146.509 172.54L133.1 164.58Z" fill="#E67052"/>
<path d="M142.4 157.361C146.14 160.541 150.86 175.06 147.36 178.5C145.84 179.99 139.01 181.201 134.49 172.491C133.03 169.661 130.15 165.051 132.5 159.911C133.57 157.561 138.05 153.671 142.4 157.361Z" fill="#EE9D7F"/>
<path d="M145.101 157.84C145.571 159.8 145.721 160.96 141.171 160.77C135.591 160.57 136.761 164.4 137.421 165.72C139.301 169.52 132.501 166 134.791 170.55C137.101 175.09 130.611 169.83 130.061 169.17C129.481 168.51 127.441 165.56 130.171 158.68C132.901 151.76 143.661 151.81 145.101 157.84Z" fill="#353A66"/>
<path d="M82.3493 244.85C79.3093 249.74 79.1293 253.651 81.6193 251.361C84.0893 249.071 84.4589 249.19 85.1989 249.87C94.5389 258.61 97.969 283.58 112.359 292.25L117.919 273.361C115.929 271.751 114.259 270.251 113.149 268.911C104.749 258.891 85.4093 239.95 82.3493 244.85Z" fill="#EE9D7F"/>
<path d="M85.3393 244.23C85.3393 244.23 82.7496 241.85 80.8296 247.61C78.8996 253.34 80.3294 253.35 82.1694 250.86C83.9894 248.37 82.8693 245.09 85.3393 244.23Z" fill="#7585F8"/>
<path d="M125.01 226.52C125.01 226.52 138.98 228.24 151.42 225.37C154.72 223.21 145.93 219.64 141.27 219.33C135.93 218.98 140.56 213.02 146.78 212.85C153.01 212.67 155.77 208.28 149.83 209.04C143.92 209.8 139.7 204.39 141.28 199.01C142.85 193.61 139.65 188.26 139.65 188.26L127.79 186.84C127.72 187 127.68 187.12 127.68 187.12L125.01 226.52Z" fill="#EFBEBD"/>
<path d="M132.26 227.39C132.26 227.39 165.87 286.84 182.33 283.51C198.79 280.18 162.79 226.59 160.26 220.89C160.26 220.89 142.52 229.46 132.26 227.39Z" fill="#EF9C16"/>
<path d="M141.221 284.75L146.281 293.13C146.281 293.13 177.691 295.51 185.641 281.32L174.451 265.77L141.221 284.75Z" fill="#EF9C16"/>
<path d="M125.119 224.17C125.119 224.17 102.959 282.31 114.939 295.43C126.919 308.5 149.859 240.01 153.119 224.17C153.119 224.17 128.779 230.71 125.119 224.17Z" fill="#EF9C16"/>
<path d="M97.3696 251.05L90.5195 260.71C90.5195 260.71 104.939 296.04 118.649 297.18L125.649 276.21L97.3696 251.05Z" fill="#EF9C16"/>
<path d="M139.201 188.91C139.201 188.91 142.921 184.25 137.221 181.53C131.521 178.8 111.021 198.77 108.911 208.42C107.881 213.1 110.191 243.49 110.191 243.49C110.191 243.49 111.691 254.92 115.431 246.83C115.431 246.83 116.041 240.08 114.371 236.45C112.691 232.82 118.331 213.62 118.331 213.62C118.331 213.62 138.771 192.39 139.201 188.91Z" fill="#E28C71"/>
<path d="M281.99 326C284.73 323.9 284.7 323.5 284.26 322.6C283.86 321.8 283.361 321 282.811 320.2L288.28 318.2C288.92 320.1 289.35 321.9 289.46 323.3C289.02 323.7 285.39 327 281.99 326Z" fill="#EE9D7F"/>
<path d="M289.47 323.3C289.49 323.3 289.55 323.2 289.55 323.2C291.51 327.9 284.68 329.1 280.85 329C277.02 328.8 281.99 326 281.99 326C285.4 327 289.02 323.7 289.47 323.3Z" fill="#7585F8"/>
<path d="M249.961 226.27C249.961 226.27 249.561 237.56 251.141 244.36C256.441 267.19 257.931 264.57 259.841 270.85C263.061 281.53 272.161 307.9 282.831 321.3C284.101 322.9 290.161 320.1 289.981 317.5C288.771 300.7 288.491 293.12 281.131 276.03C281.131 276.03 284.901 261.89 284.911 255.15C284.921 247.21 284.061 228.26 278.461 220.36L249.961 226.27Z" fill="#644FC1"/>
<path d="M249.221 328.6C252.351 327.2 252.421 326.7 252.171 325.7C251.951 324.9 251.631 324 251.261 323.1L257.031 322.3C257.241 324.3 257.301 326.2 257.101 327.6C256.571 327.9 252.341 330.3 249.221 328.6Z" fill="#EE9D7F"/>
<path d="M257.099 327.6C257.129 327.5 257.199 327.5 257.199 327.5C258.119 332.5 251.199 332.2 247.479 331.2C243.779 330.3 249.219 328.6 249.219 328.6C252.339 330.3 256.569 327.9 257.099 327.6Z" fill="#7585F8"/>
<path d="M264.26 133.11C264.26 133.11 256.78 123.35 260.69 123.96C264.6 124.59 265.98 126.5 267.95 132.47L264.26 133.11Z" fill="#FFAA83"/>
<path d="M256.641 186.93C256.481 189.08 258.171 195.01 262.561 193.08C269.531 190.01 277.781 171.281 278.571 165.741C279.371 160.201 267.941 131.62 267.941 131.62C267.941 131.62 264.921 130.411 263.611 133.321L265.531 164.821C265.531 164.821 257.191 179.54 256.641 186.93Z" fill="#FCDCDA"/>
<path d="M239.06 224.34C239.06 224.34 236.27 235.29 236.37 242.27C236.73 265.7 238.739 263.46 239.259 270C240.159 281.13 243.44 308.8 251.05 324.2C251.95 326 258.47 324.5 258.83 322C261.2 305.3 262.55 297.85 258.98 279.57C258.98 279.57 265.65 266.56 267.09 259.98C268.78 252.22 271.96 233.52 268.15 224.6L239.06 224.34Z" fill="#8D75F7"/>
<path d="M249.38 176.48C243.76 181.01 239.17 191.77 237.73 226.71C237.41 234.39 281.94 235.14 281.91 227.46C281.8 206.97 278.11 198.66 271.8 180.36C270.09 175.39 260.5 167.47 249.38 176.48Z" fill="#FCDCDA"/>
<path d="M232.539 130.79C232.539 130.79 238.479 122.66 234.809 124.14C231.149 125.63 229.369 124.731 228.799 130.991L232.539 130.79Z" fill="#FFAA83"/>
<path d="M252.11 181.5C252.76 183.54 252.449 189.71 247.739 188.8C240.259 187.39 227.989 171.01 225.969 165.8C223.939 160.58 228.62 130.16 228.62 130.16C228.62 130.16 231.309 128.299 233.219 130.849L238.469 161.96C238.469 161.96 249.92 174.42 252.11 181.5Z" fill="#FCDCDA"/>
<path d="M252.73 142.741C247.95 143.501 242.14 147.61 242.43 157.09C242.71 166.55 242.46 166.751 239.4 170.321C231.54 179.501 250.98 182.731 244.36 191.241C216.02 227.781 281.93 221.12 279.06 212.56C273.53 196.05 285.24 199.63 282.63 187.25C281.58 182.34 288.6 176.65 278.93 170.68C275.75 168.71 281.05 157.42 273.39 155.47C265.73 153.5 271.11 139.781 252.73 142.741Z" fill="#353A66"/>
<path d="M300.499 230.05L294.049 230.12L299.269 239.55L303.459 240.35L300.499 230.05Z" fill="#FCDCDA"/>
<path d="M30.7993 151.75L24.3594 151.42L29.9692 142.21L35.5894 147.58L30.7993 151.75Z" fill="#353A66"/>
<path d="M57.0889 165.45L55.3188 159.25L47.6191 166.8L47.939 171.04L57.0889 165.45Z" fill="#E03D51"/>
<path d="M361.58 207.24L359.81 201.04L352.109 208.59L352.439 212.83L361.58 207.24Z" fill="#353A66"/>
<path d="M352.94 224.16L346.49 224.21L351.72 233.65L355.9 234.46L352.94 224.16Z" fill="#FCDCDA"/>
<path d="M27.5098 124.45L32 124.22L28.0801 117.81L24.1699 121.55L27.5098 124.45Z" fill="#353A66"/>
<path d="M330.469 216.87L328.77 210.91L321.359 218.17L321.679 222.25L330.469 216.87Z" fill="#E03D51"/>
<path d="M235.34 65.6201L228.891 65.6797L234.121 75.1104L238.3 75.9199L235.34 65.6201Z" fill="#FCDCDA"/>
<path d="M261.291 71.46L259.51 65.2598L251.811 72.7998L252.141 77.0498L261.291 71.46Z" fill="#353A66"/>
<path d="M287.78 59.7197L281.34 59.7803L286.56 69.2197L290.74 70.0195L287.78 59.7197Z" fill="#FCDCDA"/>
<path d="M250.75 46.7695L249.061 40.8096L241.641 48.0703L241.96 52.1504L250.75 46.7695Z" fill="#E03D51"/>
</svg>
