<svg width="18" height="20" viewBox="0 0 18 20" fill="none" xmlns="http://www.w3.org/2000/svg">
<path fill-rule="evenodd" clip-rule="evenodd" d="M15 1.5C15.83 1.5 16.5 2.171 16.5 3V16.5C16.5 17.328 15.83 18 15 18H9C8.17 18 7.5 17.328 7.5 16.5V12.75C7.5 12.335 7.16 12 6.75 12C6.34 12 6 12.335 6 12.75V16.5C6 18.157 7.34 19.5 9 19.5H15C16.66 19.5 18 18.157 18 16.5V3C18 1.343 16.66 0 15 0H9C7.34 0 6 1.343 6 3V6.75C6 7.164 6.34 7.5 6.75 7.5C7.16 7.5 7.5 7.164 7.5 6.75V3C7.5 2.171 8.17 1.5 9 1.5H15ZM9.96973 6.21899C9.67973 6.51199 9.67973 6.987 9.96973 7.28L11.6904 9H0.75C0.34 9 0 9.335 0 9.75C0 10.164 0.34 10.5 0.75 10.5H11.6904L9.96973 12.219C9.67973 12.512 9.67973 12.987 9.96973 13.28C10.2597 13.573 10.7403 13.573 11.0303 13.28L14.0303 10.28C14.3203 9.987 14.3203 9.51199 14.0303 9.21899L11.0303 6.21899C10.7403 5.92599 10.2597 5.92599 9.96973 6.21899Z" fill="#959595"/>
</svg>
