<svg width="21" height="21" viewBox="0 0 21 21" fill="none" xmlns="http://www.w3.org/2000/svg">
<path fill-rule="evenodd" clip-rule="evenodd" d="M17.29 17.728C19.28 15.857 20.5195 13.203 20.5195 10.26C20.5195 4.59399 15.9198 0 10.2598 0C4.58977 0 0 4.59399 0 10.26C0 13.203 1.23973 15.857 3.21973 17.728C5.05973 19.458 7.52977 20.519 10.2598 20.519C12.9798 20.519 15.45 19.458 17.29 17.728ZM4.09961 16.376C5.53961 14.572 7.75977 13.416 10.2598 13.416C12.7498 13.416 14.9699 14.572 16.4199 16.376C14.8499 17.96 12.6698 18.941 10.2598 18.941C7.84977 18.941 5.66961 17.96 4.09961 16.376ZM14.2002 7.103C14.2002 9.282 12.4398 11.049 10.2598 11.049C8.07977 11.049 6.30957 9.282 6.30957 7.103C6.30957 4.924 8.07977 3.157 10.2598 3.157C12.4398 3.157 14.2002 4.924 14.2002 7.103Z" fill="#959595"/>
</svg>
