<svg width="20" height="20" viewBox="0 0 20 20" fill="none" xmlns="http://www.w3.org/2000/svg">
<path fill-rule="evenodd" clip-rule="evenodd" d="M8.5 1.75C4.77 1.75 1.75 4.7721 1.75 8.5C1.75 12.2279 4.77 15.25 8.5 15.25C10.36 15.25 12.05 14.4953 13.27 13.273C14.5 12.0506 15.25 10.3642 15.25 8.5C15.25 4.7721 12.23 1.75 8.5 1.75ZM0.25 8.5C0.25 3.9437 3.94 0.25 8.5 0.25C13.06 0.25 16.75 3.9437 16.75 8.5C16.75 10.5078 16.0301 12.3491 14.8401 13.7793L19.53 18.4697C19.82 18.7626 19.82 19.2374 19.53 19.5303C19.24 19.8232 18.76 19.8232 18.47 19.5303L13.78 14.8399C12.35 16.032 10.51 16.75 8.5 16.75C3.94 16.75 0.25 13.0563 0.25 8.5Z" fill="#644FC1"/>
</svg>
