<svg width="20" height="21" viewBox="0 0 20 21" fill="none" xmlns="http://www.w3.org/2000/svg">
<path fill-rule="evenodd" clip-rule="evenodd" d="M8.66263 0C7.70263 0 6.87243 0.697987 6.71243 1.64899L6.53275 2.77701C6.51275 2.90401 6.41243 3.05198 6.21243 3.14398C5.85243 3.31798 5.51314 3.51899 5.18314 3.74399C5.00314 3.86399 4.83267 3.87599 4.70267 3.83099L3.63333 3.42899C2.73333 3.09099 1.71294 3.45501 1.23294 4.29001L0.263216 5.97C-0.216784 6.806 -0.0268235 7.86698 0.723176 8.47998L1.60306 9.20801C1.70306 9.29001 1.78322 9.44901 1.76322 9.66101C1.75322 9.85901 1.74271 10.058 1.74271 10.26C1.74271 10.461 1.75322 10.661 1.76322 10.859C1.78322 11.07 1.70306 11.23 1.60306 11.312L0.723176 12.04C-0.0268235 12.653 -0.216784 13.714 0.263216 14.549L1.23294 16.23C1.71294 17.065 2.73333 17.429 3.63333 17.091L4.70267 16.689C4.83267 16.644 5.00314 16.656 5.18314 16.776C5.51314 17.001 5.85243 17.202 6.21243 17.376C6.41243 17.468 6.51275 17.615 6.53275 17.743L6.71243 18.87C6.87243 19.822 7.70263 20.519 8.66263 20.519H10.6031C11.5731 20.519 12.3933 19.822 12.5533 18.87L12.7427 17.743C12.7627 17.615 12.8633 17.468 13.0533 17.376C13.4133 17.201 13.7626 17.001 14.0826 16.776C14.2626 16.656 14.443 16.643 14.563 16.689L15.6333 17.091C16.5333 17.429 17.5527 17.065 18.0327 16.229L19.0025 14.549C19.4825 13.714 19.2933 12.652 18.5533 12.039L17.6626 11.311C17.5626 11.229 17.4825 11.07 17.5025 10.859C17.5225 10.661 17.523 10.461 17.523 10.26C17.523 10.058 17.5225 9.85801 17.5025 9.66101C17.4825 9.44901 17.5626 9.29001 17.6626 9.20801L18.5533 8.47998C19.2933 7.86698 19.4825 6.805 19.0025 5.97L18.0327 4.29001C17.5527 3.45501 16.5333 3.08999 15.6333 3.42899L14.563 3.83099C14.443 3.87599 14.2626 3.86399 14.0826 3.74399C13.7626 3.51899 13.4133 3.31798 13.0533 3.14398C12.8633 3.05198 12.7627 2.90401 12.7427 2.77701L12.5533 1.64899C12.3933 0.697987 11.5731 0 10.6031 0H8.66263ZM9.63333 14.206C11.8133 14.206 13.5826 12.439 13.5826 10.26C13.5826 8.08101 11.8133 6.314 9.63333 6.314C7.45333 6.314 5.6929 8.08101 5.6929 10.26C5.6929 12.439 7.45333 14.206 9.63333 14.206Z" fill="#959595"/>
</svg>
